<?xml version="1.0" encoding="UTF-8"?>
<svg version="1.1" xmlns="http://www.w3.org/2000/svg" width="511" height="488">
<path d="M0 0 C4.98604458 0.00632696 9.97209001 0.00684462 14.95813799 0.00802541 C24.36389192 0.01111155 33.76963399 0.01928763 43.17538273 0.0293749 C55.91084091 0.04273148 68.64630241 0.04805793 81.38176584 0.05387712 C101.39521833 0.06322989 121.40864579 0.08316675 141.42209673 0.10139394 C141.42209673 26.17139394 141.42209673 52.24139394 141.42209673 79.10139394 C133.16335527 79.12326772 133.16335527 79.12326772 124.73777056 79.14558339 C106.53305469 79.19595241 88.32842366 79.2624026 70.12379217 79.33710885 C59.08790148 79.3820052 48.05204261 79.42143403 37.01609087 79.44782948 C27.39310368 79.47085951 17.77021773 79.50431326 8.14731091 79.5500955 C3.05573794 79.57396031 -2.03573518 79.59273319 -7.12736273 79.59900784 C-11.92823778 79.60508929 -16.72885757 79.62519881 -21.52963781 79.65566945 C-23.28345922 79.66440088 -25.03731405 79.66818251 -26.79115629 79.6664021 C-43.31083266 79.65493588 -58.07961348 81.70249686 -71.57790327 92.10139394 C-71.90790327 92.76139394 -72.23790327 93.42139394 -72.57790327 94.10139394 C-73.23790327 94.10139394 -73.89790327 94.10139394 -74.57790327 94.10139394 C-74.94915327 95.06045644 -74.94915327 95.06045644 -75.32790327 96.03889394 C-76.35441726 98.55385322 -77.44709725 101.00803006 -78.57790327 103.47639394 C-83.92584842 115.5890906 -83.23174443 124.28327004 -79.06227827 136.58576894 C-77.57544187 140.10722357 -75.7455849 142.9663172 -73.57790327 146.10139394 C-73.24790327 147.09139394 -72.91790327 148.08139394 -72.57790327 149.10139394 C-70.81851269 150.1517826 -70.81851269 150.1517826 -68.57790327 151.10139394 C-67.66137983 151.63635488 -66.7448564 152.17131581 -65.80055952 152.72248769 C-64.75770796 153.32190175 -63.7148564 153.92131581 -62.64040327 154.53889394 C-61.62075483 155.13572988 -60.6011064 155.73256581 -59.55055952 156.34748769 C-48.3620696 161.79352807 -36.14464505 161.5272109 -24.02565718 161.47029042 C-22.18915791 161.47276361 -20.35266007 161.47660725 -18.51616621 161.481704 C-14.58379209 161.48999496 -10.65156304 161.48927422 -6.71918821 161.48151898 C-0.47804649 161.46984338 5.76291248 161.48217784 12.00403643 161.49813771 C27.51060698 161.53418426 43.01717259 161.54057421 58.5237813 161.53803945 C70.57275675 161.53631993 82.62158066 161.54369664 94.67051423 161.57801801 C99.84723441 161.59193906 105.02370058 161.59806514 110.20042849 161.58497357 C144.36076265 161.50260976 177.30038364 162.9367798 207.42209673 181.10139394 C208.41209673 181.69565175 209.40209673 182.28990956 210.42209673 182.90217519 C216.27384034 186.50726723 216.27384034 186.50726723 218.42209673 188.10139394 C218.42209673 188.76139394 218.42209673 189.42139394 218.42209673 190.10139394 C219.41209673 190.10139394 220.40209673 190.10139394 221.42209673 190.10139394 C223.54709673 192.03889394 223.54709673 192.03889394 224.85569048 193.44514394 C225.99573542 194.65057799 227.18262222 195.81222173 228.39475298 196.94514394 C247.94240075 215.42404906 259.59176053 242.15062848 260.52268267 269.00276113 C260.82634065 281.46773382 260.9960171 293.85083623 258.42209673 306.10139394 C258.23904985 307.07076894 258.05600298 308.04014394 257.86740923 309.03889394 C252.16438026 335.51221359 234.60533689 357.89892974 212.23850298 372.55598378 C182.57904356 391.31603765 147.96243547 395.47740748 113.59665728 395.32844472 C111.72166242 395.32787843 109.84666713 395.32820139 107.97167253 395.32932973 C102.95650674 395.32989577 97.94143964 395.31826507 92.92629647 395.30418181 C87.65730848 395.29154736 82.38831739 395.29049406 77.11931658 395.288131 C67.17519087 395.28195315 57.23110994 395.26559318 47.28700382 395.24543202 C35.9517932 395.22295694 24.61658028 395.21205061 13.28135288 395.20204115 C-10.00509627 395.181223 -33.29148415 395.14459386 -56.57790327 395.10139394 C-56.57790327 369.36139394 -56.57790327 343.62139394 -56.57790327 317.10139394 C-43.7929814 317.07561269 -31.00805952 317.04983144 -17.83571577 317.02326894 C-9.7146069 316.99808933 -1.59352144 316.97190932 6.52756548 316.94123769 C19.40500499 316.89278705 32.28236664 316.84830837 45.1598897 316.83039784 C54.54086685 316.81733159 63.92168457 316.79024103 73.30257189 316.74678087 C78.26299121 316.7242773 83.22321471 316.70847653 88.18368959 316.70951009 C92.86727352 316.71026333 97.55042643 316.69205016 102.23389864 316.66022611 C103.93885371 316.65181372 105.64385764 316.64991705 107.34882402 316.65559125 C116.13358275 316.68089832 124.4767529 316.1811433 133.08252764 314.31727529 C134.1626035 314.08501921 134.1626035 314.08501921 135.26449907 313.8480711 C145.90110892 311.30412171 155.89575806 305.57119224 161.85959673 296.22639394 C167.64677359 285.56580499 167.81673366 273.10531687 165.19944048 261.39436269 C164.09808845 258.14565093 162.42195125 255.48269164 160.44553423 252.69514394 C159.42209673 251.10139394 159.42209673 251.10139394 159.42209673 249.10139394 C158.76209673 249.10139394 158.10209673 249.10139394 157.42209673 249.10139394 C154.79709673 246.72639394 154.79709673 246.72639394 152.42209673 244.10139394 C152.42209673 243.44139394 152.42209673 242.78139394 152.42209673 242.10139394 C151.87166704 241.98666738 151.32123735 241.87194081 150.75412798 241.75373769 C148.04123678 240.99485522 145.66297066 239.85405578 143.10959673 238.66389394 C130.43041241 233.37397136 116.55149676 233.80188064 103.0348897 233.79841542 C101.24098127 233.79073396 99.44707638 233.78218383 97.65317583 233.77284169 C93.82126155 233.75470735 89.98939462 233.74257744 86.15744448 233.73530316 C80.08692824 233.72371477 74.01651639 233.69821584 67.94605303 233.67098927 C58.33953855 233.62950155 48.73301883 233.59701357 39.12645781 233.56851512 C21.93001731 233.51741059 4.73362188 233.45504588 -12.46274412 233.38317472 C-18.48626624 233.35840994 -24.50977498 233.33890889 -30.53332877 233.32379258 C-34.29024456 233.31352089 -38.04713918 233.29937519 -41.80403852 233.2843163 C-43.53369724 233.27821064 -45.26336263 233.27372374 -46.99303007 233.27105832 C-72.25295715 233.22994073 -72.25295715 233.22994073 -84.39040327 230.41389394 C-85.14756636 230.24019277 -85.90472944 230.06649159 -86.68483686 229.88752675 C-103.35310455 225.87769125 -122.62120302 218.62538214 -135.57790327 207.10139394 C-135.57790327 206.44139394 -135.57790327 205.78139394 -135.57790327 205.10139394 C-136.38227827 204.76108144 -136.38227827 204.76108144 -137.20290327 204.41389394 C-156.7245508 193.62561504 -166.7995862 168.72197517 -172.8767314 148.54133534 C-180.7857252 121.01957907 -176.29685772 87.5636534 -163.26540327 62.22639394 C-157.9013411 52.84816603 -151.4568205 44.48037987 -143.57790327 37.10139394 C-142.79415327 36.27639394 -142.01040327 35.45139394 -141.20290327 34.60139394 C-126.26441267 20.37426004 -108.17077462 11.87277178 -88.47414351 6.61628652 C-86.6785751 6.1287297 -84.89523229 5.59678235 -83.11305952 5.06233144 C-72.85499513 2.2739515 -62.12517857 0.98207346 -51.52077436 0.5176537 C-50.60542606 0.47744635 -49.69007776 0.43723899 -48.74699163 0.39581323 C-32.5104829 -0.21500253 -16.24494665 -0.02415161 0 0 Z " fill="#D6FD01" transform="translate(210.57790327072144,39.898606061935425)"/>
<path d="M0 0 C59.4 0 118.8 0 180 0 C180 26.07 180 52.14 180 79 C171.74125854 79.02187378 171.74125854 79.02187378 163.31567383 79.04418945 C145.11095797 79.09455847 126.90632693 79.16100866 108.70169544 79.23571491 C97.66580475 79.28061126 86.62994588 79.32004009 75.59399414 79.34643555 C65.97100695 79.36946557 56.348121 79.40291933 46.72521418 79.44870156 C41.63364121 79.47256637 36.5421681 79.49133925 31.45054054 79.49761391 C26.64966549 79.50369536 21.8490457 79.52380487 17.04826546 79.55427551 C15.29444405 79.56300694 13.54058922 79.56678858 11.78674698 79.56500816 C-4.58179496 79.55364684 -18.12929952 81.88496826 -32 91 C-32 89.68 -32 88.36 -32 87 C-30.68 87 -29.36 87 -28 87 C-28 86.01 -28 85.02 -28 84 C-25.36 83.67 -22.72 83.34 -20 83 C-20 82.34 -20 81.68 -20 81 C-16.45917084 78.8755025 -13.05008109 78.53491637 -9 78 C-8.67 77.67 -8.34 77.34 -8 77 C-5.58411027 76.90232615 -3.19684616 76.87003322 -0.78050232 76.87974548 C0.36621576 76.87846385 0.36621576 76.87846385 1.53609985 76.87715632 C4.11727018 76.87549921 6.6983766 76.88102663 9.27954102 76.88647461 C11.12202961 76.88675646 12.96451831 76.88659879 14.80700684 76.8860321 C19.82539237 76.88574404 24.84375421 76.89164225 29.86213422 76.89860606 C35.10054738 76.90483807 40.33896102 76.90544328 45.57737732 76.90663147 C55.50444491 76.90974524 65.43150156 76.91795924 75.35856432 76.92798096 C86.65704095 76.93914069 97.9555181 76.94465219 109.25399888 76.94967639 C132.5026734 76.96014182 155.75133289 76.97848786 179 77 C179 51.92 179 26.84 179 1 C119.93 1 60.86 1 0 1 C0 0.67 0 0.34 0 0 Z " fill="#E0F656" transform="translate(172,40)"/>
<path d="M0 0 C0 0.66 0 1.32 0 2 C-1.49450855 2.65844127 -2.99600692 3.301021 -4.5 3.9375 C-5.3353125 4.29714844 -6.170625 4.65679687 -7.03125 5.02734375 C-13.15638416 7.03413113 -19.5121454 7.14731006 -25.90942383 7.12025452 C-26.66354931 7.12110894 -27.41767479 7.12196337 -28.19465256 7.12284368 C-30.69880366 7.12447895 -33.20288641 7.11900938 -35.70703125 7.11352539 C-37.51114399 7.11324307 -39.31525684 7.11340213 -41.11936951 7.1139679 C-46.00098162 7.11425412 -50.88256903 7.10838563 -55.76417542 7.10139394 C-60.87175368 7.09513131 -65.97933255 7.0945543 -71.08691406 7.09336853 C-80.75167056 7.09026379 -90.41641571 7.08206196 -100.08116722 7.07201904 C-111.08718775 7.06083128 -122.09320883 7.05534074 -133.09923363 7.05032361 C-155.73283015 7.03987863 -178.36641113 7.0215438 -201 7 C-201 32.08 -201 57.16 -201 83 C-169.99114559 82.90899459 -169.99114559 82.90899459 -138.98242188 82.79101562 C-126.31047903 82.73683479 -113.63857404 82.68541178 -100.96655273 82.65356445 C-91.73158041 82.6303412 -82.49671021 82.59668139 -73.2618193 82.55129844 C-68.38758572 82.52768809 -63.5134512 82.50875176 -58.63916206 82.50238609 C-40.0016143 82.47493367 -21.4824521 82.26162593 -2.91381836 80.53051758 C-1.84226051 80.43062753 -1.84226051 80.43062753 -0.74905503 80.3287195 C6.09653859 80.31333069 6.09653859 80.31333069 12 78 C14.0572917 77.68076508 16.11613521 77.48838648 18.1875 77.28125 C20.0167533 77.18001957 20.0167533 77.18001957 21 76 C22.68608966 75.92794489 24.37500659 75.91613932 26.0625 75.9375 C27.44115234 75.95103516 27.44115234 75.95103516 28.84765625 75.96484375 C29.91306641 75.98224609 29.91306641 75.98224609 31 76 C27.36287948 78.42474702 23.83104221 79.11742065 19.625 80 C18.90828125 80.165 18.1915625 80.33 17.453125 80.5 C1.30187638 83.93415253 -15.37891616 84.29834029 -31.82543945 84.22705078 C-33.7004343 84.22648449 -35.5754296 84.22680745 -37.45042419 84.22793579 C-42.46558999 84.22850183 -47.48065709 84.21687113 -52.49580026 84.20278788 C-57.76478825 84.19015342 -63.03377934 84.18910012 -68.30278015 84.18673706 C-78.24690586 84.18055921 -88.19098679 84.16419924 -98.13509291 84.14403808 C-109.47030353 84.121563 -120.80551645 84.11065667 -132.14074385 84.10064721 C-155.427193 84.07982906 -178.71358087 84.04319992 -202 84 C-202 58.26 -202 32.52 -202 6 C-189.21507812 5.97421875 -176.43015625 5.9484375 -163.2578125 5.921875 C-155.13670363 5.8966954 -147.01561817 5.87051538 -138.89453125 5.83984375 C-126.01709174 5.79139311 -113.13973009 5.74691443 -100.26220703 5.72900391 C-90.88122988 5.71593766 -81.50041216 5.68884709 -72.11952484 5.64538693 C-67.15910552 5.62288336 -62.19888202 5.6070826 -57.23840714 5.60811615 C-52.55482321 5.60886939 -47.8716703 5.59065622 -43.18819809 5.55883217 C-41.48324302 5.55041978 -39.77823909 5.54852311 -38.07327271 5.55419731 C-25.08733602 5.59160711 -12.22985859 0 0 0 Z " fill="#D3EC3B" transform="translate(356,351)"/>
<path d="M0 0 C1.98307278 0.00084884 3.96614651 0.00036614 5.94921875 -0.00132751 C11.26825718 -0.00217888 16.58708751 0.01530575 21.9060781 0.03639436 C27.48870996 0.05530634 33.071348 0.05692293 38.65400696 0.06047058 C49.19675306 0.06974878 59.73940445 0.09430463 70.28210908 0.12451905 C82.296818 0.15819555 94.31153173 0.1745822 106.32627618 0.18960536 C131.01486376 0.22085853 155.70332171 0.27581699 180.3918457 0.34057617 C180.3918457 24.43057617 180.3918457 48.52057617 180.3918457 73.34057617 C179.4018457 73.01057617 178.4118457 72.68057617 177.3918457 72.34057617 C177.7218457 72.01057617 178.0518457 71.68057617 178.3918457 71.34057617 C178.48606311 69.223763 178.50927331 67.10376859 178.50537109 64.98486328 C178.50559013 63.98978004 178.50559013 63.98978004 178.5058136 62.97459412 C178.50511451 60.77233662 178.49732235 58.57016272 178.48950195 56.36791992 C178.48763776 54.84477281 178.48621386 53.3216251 178.48521423 51.79847717 C178.48138917 47.78219966 178.47155898 43.7659581 178.46051025 39.74969482 C178.45029589 35.65434251 178.44571656 31.55898441 178.44067383 27.46362305 C178.4299367 19.42259089 178.41286042 11.381588 178.3918457 3.34057617 C175.46987857 1.8795926 172.90662508 2.21456724 169.64224243 2.21359253 C168.94002324 2.21203254 168.23780404 2.21047255 167.51430547 2.20886528 C165.1487575 2.2048602 162.78327312 2.2080433 160.41772461 2.21118164 C158.72576357 2.20982716 157.03380283 2.20804697 155.34184265 2.20587158 C150.7312538 2.20129655 146.12068724 2.20308875 141.51009798 2.20625067 C136.67342856 2.20878133 131.83676105 2.20643406 127.00009155 2.2048645 C118.8572353 2.20304174 110.71438809 2.20544862 102.5715332 2.21020508 C93.20267585 2.21561506 83.83384038 2.21390942 74.46498358 2.20837867 C66.4010012 2.20381109 58.33702534 2.20321567 50.27304208 2.20581734 C45.46689203 2.20736444 40.66075218 2.20761808 35.85460281 2.20428085 C31.31561347 2.20135014 26.77665161 2.20347126 22.23766518 2.20917511 C20.58835584 2.21047669 18.93904412 2.21015409 17.28973579 2.20791245 C8.38851161 2.19694906 -0.48511638 2.36096766 -9.37710571 2.78616333 C-10.21010645 2.82489905 -11.04310719 2.86363477 -11.90135038 2.90354431 C-16.21048299 3.12929465 -20.35438763 3.57622929 -24.6081543 4.34057617 C-26.73227425 4.40517836 -28.85818334 4.42668696 -30.9831543 4.40307617 C-32.57256836 4.38954102 -32.57256836 4.38954102 -34.1940918 4.37573242 C-34.99073242 4.36413086 -35.78737305 4.3525293 -36.6081543 4.34057617 C-36.6081543 5.00057617 -36.6081543 5.66057617 -36.6081543 6.34057617 C-37.35838867 6.43854492 -38.10862305 6.53651367 -38.8815918 6.63745117 C-45.12143102 7.54906496 -50.43693538 8.93874005 -56.20581055 11.45385742 C-59.98375917 12.84831976 -63.60378573 13.08222981 -67.6081543 13.34057617 C-63.94988108 10.02979065 -59.9406669 9.05073736 -55.2956543 7.77807617 C-54.5615332 7.56989258 -53.82741211 7.36170898 -53.07104492 7.1472168 C-51.68174532 6.75397228 -50.29148075 6.36410672 -48.89990234 5.97900391 C-47.09512945 5.47623613 -45.29857702 4.94395603 -43.50551319 4.40090656 C-29.264863 0.3492305 -14.69740096 -0.08974061 0 0 Z " fill="#D8F817" transform="translate(170.608154296875,40.659423828125)"/>
<path d="M0 0 C0 0.66 0 1.32 0 2 C-1.49450855 2.65844127 -2.99600692 3.301021 -4.5 3.9375 C-5.3353125 4.29714844 -6.170625 4.65679687 -7.03125 5.02734375 C-13.15638416 7.03413113 -19.5121454 7.14731006 -25.90942383 7.12025452 C-26.66354931 7.12110894 -27.41767479 7.12196337 -28.19465256 7.12284368 C-30.69880366 7.12447895 -33.20288641 7.11900938 -35.70703125 7.11352539 C-37.51114399 7.11324307 -39.31525684 7.11340213 -41.11936951 7.1139679 C-46.00098162 7.11425412 -50.88256903 7.10838563 -55.76417542 7.10139394 C-60.87175368 7.09513131 -65.97933255 7.0945543 -71.08691406 7.09336853 C-80.75167056 7.09026379 -90.41641571 7.08206196 -100.08116722 7.07201904 C-111.08718775 7.06083128 -122.09320883 7.05534074 -133.09923363 7.05032361 C-155.73282892 7.03987863 -178.36641334 7.02209372 -201 7 C-201 13.93 -201 20.86 -201 28 C-201.33 28 -201.66 28 -202 28 C-202 20.74 -202 13.48 -202 6 C-199.7849173 5.99635437 -197.56983459 5.99270874 -195.28762817 5.98895264 C-174.36678729 5.95263094 -153.44608874 5.89433176 -132.52536201 5.81609726 C-121.7709747 5.7764024 -111.01665955 5.74396158 -100.26220703 5.72900391 C-90.88122988 5.71593766 -81.50041216 5.68884709 -72.11952484 5.64538693 C-67.15910552 5.62288336 -62.19888202 5.6070826 -57.23840714 5.60811615 C-52.55482321 5.60886939 -47.8716703 5.59065622 -43.18819809 5.55883217 C-41.48324302 5.55041978 -39.77823909 5.54852311 -38.07327271 5.55419731 C-25.08733602 5.59160711 -12.22985859 0 0 0 Z " fill="#DAF62C" transform="translate(356,351)"/>
<path d="M0 0 C2 2 2 2 2.23377991 4.24586487 C2.22632248 5.17994675 2.21886505 6.11402863 2.21118164 7.07641602 C2.20780289 8.13413712 2.20442413 9.19185822 2.20094299 10.28163147 C2.18748337 11.42748215 2.17402374 12.57333282 2.16015625 13.75390625 C2.15495468 14.92509506 2.14975311 16.09628387 2.14439392 17.30296326 C2.12652723 21.05626618 2.0953408 24.80930048 2.0625 28.5625 C2.03494559 32.31924398 2.01023891 36.0759508 1.99131775 39.83274841 C1.97899541 42.17430565 1.96132984 44.5158416 1.93800354 46.85731506 C1.93147263 47.911884 1.92494171 48.96645294 1.91821289 50.05297852 C1.90995987 50.9862648 1.90170685 51.91955109 1.89320374 52.88111877 C1.76183532 54.98537391 1.76183532 54.98537391 3 56 C5.26527236 56.10938256 7.53401153 56.14693538 9.80189514 56.15821838 C10.8812346 56.16562535 10.8812346 56.16562535 11.9823789 56.17318195 C14.41150861 56.18863131 16.84061175 56.19693756 19.26977539 56.20532227 C21.0038934 56.21489496 22.73800905 56.22490467 24.47212219 56.23532104 C29.19503778 56.26244221 33.91796344 56.28341259 38.6409142 56.30332303 C43.57104801 56.32513827 48.50115055 56.35254871 53.43125916 56.37937927 C62.77394094 56.4293667 72.11664003 56.474283 81.45935577 56.51740164 C92.09281276 56.56672242 102.72623837 56.62165962 113.35966504 56.67708123 C135.23974748 56.79099411 157.11985986 56.89781278 179 57 C179 57.33 179 57.66 179 58 C119.93 58 60.86 58 0 58 C0 38.86 0 19.72 0 0 Z " fill="#D8F815" transform="translate(155,376)"/>
<path d="M0 0 C0.91652344 0.01160156 1.83304687 0.02320313 2.77734375 0.03515625 C3.69644531 0.04417969 4.61554688 0.05320312 5.5625 0.0625 C6.27277344 0.07410156 6.98304688 0.08570313 7.71484375 0.09765625 C4.07772323 2.52240327 0.54588596 3.2150769 -3.66015625 4.09765625 C-4.376875 4.26265625 -5.09359375 4.42765625 -5.83203125 4.59765625 C-24.16670319 8.49605826 -42.95339239 8.36600085 -61.59765625 8.22265625 C-63.91080335 8.21259132 -66.22395477 8.20347178 -68.53710938 8.1953125 C-74.11988823 8.17361198 -79.70250098 8.1404211 -85.28515625 8.09765625 C-85.28515625 7.76765625 -85.28515625 7.43765625 -85.28515625 7.09765625 C-84.24625244 7.08307373 -83.20734863 7.06849121 -82.13696289 7.0534668 C-63.49608974 6.77313566 -44.91731178 6.33721163 -26.34765625 4.59765625 C-25.27646042 4.49908829 -25.27646042 4.49908829 -24.18362427 4.39852905 C-17.25966095 4.40697559 -17.25966095 4.40697559 -11.28515625 2.09765625 C-9.22786455 1.77842133 -7.16902104 1.58604273 -5.09765625 1.37890625 C-2.69444523 1.0059942 -2.58365194 0.11041248 0 0 Z " fill="#DAF241" transform="translate(379.28515625,426.90234375)"/>
<path d="M0 0 C0 0.33 0 0.66 0 1 C-10.37281803 2.82283831 -20.42073458 4.57014005 -31 4 C-31 4.66 -31 5.32 -31 6 C-31.75023437 6.09796875 -32.50046875 6.1959375 -33.2734375 6.296875 C-39.51327672 7.20848879 -44.82878108 8.59816388 -50.59765625 11.11328125 C-54.37560487 12.50774359 -57.99563144 12.74165364 -62 13 C-58.34172678 9.68921448 -54.33251261 8.71016119 -49.6875 7.4375 C-48.95337891 7.22931641 -48.21925781 7.02113281 -47.46289062 6.80664062 C-46.00052162 6.39271364 -44.53681091 5.98349656 -43.07177734 5.57910156 C-41.2141382 5.05985574 -39.3660563 4.50669938 -37.51953125 3.94921875 C-33.37170477 2.83054857 -29.23926476 2.0532997 -25 1.375 C-23.76672974 1.17716919 -23.76672974 1.17716919 -22.50854492 0.9753418 C-14.9570586 -0.15282328 -7.62374557 -0.3076848 0 0 Z " fill="#D9F441" transform="translate(165,41)"/>
<path d="M0 0 C2.475 0.99 2.475 0.99 5 2 C5 2.66 5 3.32 5 4 C5.99 4 6.98 4 8 4 C9.7678133 5.61628644 11.36671129 7.25478542 13 9 C14.4334977 10.44149118 15.87118534 11.87882481 17.3125 13.3125 C18.54166667 14.54166667 19.77083333 15.77083333 21 17 C20.67 17.66 20.34 18.32 20 19 C17.9375 19.625 17.9375 19.625 16 20 C15.87625 19.195625 15.7525 18.39125 15.625 17.5625 C15.41875 16.716875 15.2125 15.87125 15 15 C14.34 14.67 13.68 14.34 13 14 C13 13.01 13 12.02 13 11 C11.02 10.34 9.04 9.68 7 9 C7 8.34 7 7.68 7 7 C6.34 7 5.68 7 5 7 C4.731875 6.360625 4.46375 5.72125 4.1875 5.0625 C3.11332248 2.66868314 3.11332248 2.66868314 0 2 C0 1.34 0 0.68 0 0 Z " fill="#DEF550" transform="translate(424,226)"/>
<path d="M0 0 C0.99 0.495 0.99 0.495 2 1 C2 1.66 2 2.32 2 3 C2.80630859 3.38865234 2.80630859 3.38865234 3.62890625 3.78515625 C5.37263535 4.67856605 7.08521933 5.63342619 8.77734375 6.62109375 C16.37058548 10.9855652 23.37341469 13.51752626 32 15 C32 15.33 32 15.66 32 16 C25.32508169 16.45510807 19.40625443 14.7672426 13 13 C13 12.34 13 11.68 13 11 C12.01 11 11.02 11 10 11 C10 10.34 10 9.68 10 9 C9.01 9 8.02 9 7 9 C7 8.34 7 7.68 7 7 C6.01 7 5.02 7 4 7 C4 6.34 4 5.68 4 5 C3.01 4.67 2.02 4.34 1 4 C0.3125 1.9375 0.3125 1.9375 0 0 Z " fill="#DDF350" transform="translate(136,186)"/>
<path d="M0 0 C0.33 0 0.66 0 1 0 C1.05519204 1.81213857 1.09331732 3.62479799 1.125 5.4375 C1.14820313 6.44683594 1.17140625 7.45617187 1.1953125 8.49609375 C1.03930612 11.29484814 0.69992705 13.44816226 0.03125 16.125 C-1.34209596 21.89561207 -1.45403018 27.65335552 -1.625 33.5625 C-1.66367187 34.66658203 -1.70234375 35.77066406 -1.7421875 36.90820312 C-1.83559384 39.60531125 -1.92136476 42.3024277 -2 45 C-2.33 45 -2.66 45 -3 45 C-3.31632418 29.71424244 -3.58437212 14.93488381 0 0 Z " fill="#DDF453" transform="translate(38,127)"/>
<path d="M0 0 C10.97906961 0.7443437 21.13821455 4.20926185 31 9 C27.35159941 10.21613353 26.65577512 9.6586565 23.25 8.125 C19.06166855 6.34051325 15.50209252 5.47894601 11 5 C10.67 4.67 10.34 4.34 10 4 C8.88625 3.87625 7.7725 3.7525 6.625 3.625 C2.89696185 2.9822348 2.32745791 2.6701511 0 0 Z " fill="#DCF347" transform="translate(375,206)"/>
<path d="M0 0 C0 0.66 0 1.32 0 2 C-1.49450855 2.65844127 -2.99600692 3.301021 -4.5 3.9375 C-5.3353125 4.29714844 -6.170625 4.65679687 -7.03125 5.02734375 C-13.55836991 7.16583435 -20.20408195 7.13905714 -27 7.0625 C-28.16208984 7.05573242 -28.16208984 7.05573242 -29.34765625 7.04882812 C-31.23180524 7.03719758 -33.11591365 7.01926906 -35 7 C-35 6.67 -35 6.34 -35 6 C-33.76765625 5.89042969 -32.5353125 5.78085937 -31.265625 5.66796875 C-21.13515351 4.71628425 -9.62078142 0 0 0 Z " fill="#DDF53F" transform="translate(356,351)"/>
<path d="M0 0 C-0.66 0 -1.32 0 -2 0 C-2.2475 0.639375 -2.495 1.27875 -2.75 1.9375 C-3.77651399 4.45245928 -4.86919398 6.90663612 -6 9.375 C-7.7173541 13.20059851 -8.9634976 16.94036561 -10 21 C-10.33 21 -10.66 21 -11 21 C-11.31368837 15.03992093 -10.63699236 11.47683029 -8 6 C-7.4740625 4.329375 -7.4740625 4.329375 -6.9375 2.625 C-5.44403213 -1.55671003 -3.82439252 -1.14731776 0 0 Z " fill="#DEF353" transform="translate(138,134)"/>
<path d="M0 0 C0.33 0 0.66 0 1 0 C1.86173532 20.63377352 1.86173532 20.63377352 -3 27 C-5.64453125 28.25390625 -5.64453125 28.25390625 -8 29 C-6.77842536 26.48595576 -5.49236673 24.19095948 -4 21.8125 C-0.61798153 15.2125162 -0.62773878 7.26855426 0 0 Z " fill="#DFF855" transform="translate(378,312)"/>
<path d="M0 0 C-1.79036458 0.9765625 -3.58072917 1.953125 -5.37109375 2.9296875 C-7.16618315 3.91410024 -7.16618315 3.91410024 -8 6 C-14.23076923 9 -14.23076923 9 -18 9 C-18.33 9.99 -18.66 10.98 -19 12 C-19.99 11.34 -20.98 10.68 -22 10 C-3.98075381 -1.9903769 -3.98075381 -1.9903769 0 0 Z " fill="#DBF548" transform="translate(103,55)"/>
<path d="M0 0 C2.31 0.66 4.62 1.32 7 2 C7 2.66 7 3.32 7 4 C7.66 4 8.32 4 9 4 C9 4.66 9 5.32 9 6 C9.99 6 10.98 6 12 6 C12 6.66 12 7.32 12 8 C13.65 8.33 15.3 8.66 17 9 C17 9.66 17 10.32 17 11 C17.66 11 18.32 11 19 11 C19 11.66 19 12.32 19 13 C12.86799698 11.5476835 7.78090071 8.00613024 3 4 C3 3.34 3 2.68 3 2 C2.01 1.67 1.02 1.34 0 1 C0 0.67 0 0.34 0 0 Z " fill="#DFF755" transform="translate(72,243)"/>
<path d="M0 0 C0.66 0 1.32 0 2 0 C2.12117188 0.85464844 2.24234375 1.70929688 2.3671875 2.58984375 C2.53476562 3.69457031 2.70234375 4.79929688 2.875 5.9375 C3.03742187 7.03964844 3.19984375 8.14179688 3.3671875 9.27734375 C3.57601562 10.17582031 3.78484375 11.07429687 4 12 C4.66 12.33 5.32 12.66 6 13 C6.4140625 15.50390625 6.4140625 15.50390625 6.625 18.5625 C6.69976562 19.57441406 6.77453125 20.58632812 6.8515625 21.62890625 C6.92503906 22.80259766 6.92503906 22.80259766 7 24 C5 23 5 23 3.7109375 19.6484375 C3.25742653 18.22654724 2.812482 16.80190351 2.375 15.375 C2.14554688 14.67503906 1.91609375 13.97507813 1.6796875 13.25390625 C0.2498086 8.6663781 -0.23943132 4.8012281 0 0 Z " fill="#DEF650" transform="translate(37,179)"/>
<path d="M0 0 C0.70703125 1.734375 0.70703125 1.734375 1 4 C-0.36328125 6.140625 -0.36328125 6.140625 -2.3125 8.25 C-2.94800781 8.95640625 -3.58351563 9.6628125 -4.23828125 10.390625 C-6 12 -6 12 -8 12 C-8 12.66 -8 13.32 -8 14 C-8.99 14.33 -9.98 14.66 -11 15 C-9.58319756 10.67953102 -7.46236215 7.99538801 -4.375 4.6875 C-3.55773438 3.80449219 -2.74046875 2.92148438 -1.8984375 2.01171875 C-0.95871094 1.01591797 -0.95871094 1.01591797 0 0 Z " fill="#DAF738" transform="translate(64,80)"/>
<path d="M0 0 C2.99876322 2.80319171 5.16322727 5.59434917 7.25 9.125 C8.03117187 10.42824219 8.03117187 10.42824219 8.828125 11.7578125 C10 14 10 14 10 16 C9.34 16 8.68 16 8 16 C7.525625 15.34 7.05125 14.68 6.5625 14 C6.046875 13.34 5.53125 12.68 5 12 C4.01 12 3.02 12 2 12 C1.855625 10.948125 1.71125 9.89625 1.5625 8.8125 C1.12473034 5.84539451 0.62195134 2.93205634 0 0 Z " fill="#DEF543" transform="translate(448,248)"/>
<path d="M0 0 C-20.68637084 9.13377282 -20.68637084 9.13377282 -27 7 C-5.24783862 -1.74927954 -5.24783862 -1.74927954 0 0 Z " fill="#DFF455" transform="translate(130,46)"/>
<path d="M0 0 C0 0.33 0 0.66 0 1 C-0.90621094 1.21914062 -1.81242187 1.43828125 -2.74609375 1.6640625 C-10.50942218 3.68499244 -16.69432642 5.99549716 -23 11 C-23 9.68 -23 8.36 -23 7 C-21.68 7 -20.36 7 -19 7 C-19 6.01 -19 5.02 -19 4 C-16.36 3.67 -13.72 3.34 -11 3 C-11 2.34 -11 1.68 -11 1 C-7.26562152 0.12132271 -3.83225427 -0.08912219 0 0 Z " fill="#E0F357" transform="translate(163,120)"/>
<path d="M0 0 C0.66 0.33 1.32 0.66 2 1 C-2.73182553 8.34248788 -2.73182553 8.34248788 -5 10 C-8.1875 10.6875 -8.1875 10.6875 -11 11 C-11 10.34 -11 9.68 -11 9 C-9.00715862 7.6559907 -7.00580329 6.32458708 -5 5 C-3.29671681 3.3707726 -1.61838719 1.71358643 0 0 Z " fill="#DEF74D" transform="translate(79,66)"/>
<path d="M0 0 C1.65 0 3.3 0 5 0 C0.90328622 4.49316995 -3.71434062 7.97813973 -9 11 C-9.66 11 -10.32 11 -11 11 C-10.67 9.68 -10.34 8.36 -10 7 C-7.69 6.34 -5.38 5.68 -3 5 C-3 4.34 -3 3.68 -3 3 C-2.01 3 -1.02 3 0 3 C0 2.01 0 1.02 0 0 Z " fill="#DDF63F" transform="translate(428,404)"/>
<path d="M0 0 C1.81508956 3.44358114 3.2239286 6.9953238 4.625 10.625 C5.07101563 11.77226562 5.51703125 12.91953125 5.9765625 14.1015625 C7 17 7 17 7 19 C5 19 5 19 3.375 17.4375 C1.54487961 14.19319567 1.78868718 11.66275561 2 8 C1.34 8 0.68 8 0 8 C0 5.36 0 2.72 0 0 Z " fill="#DEF44E" transform="translate(127,165)"/>
<path d="M0 0 C0.33 0 0.66 0 1 0 C1.33 2.64 1.66 5.28 2 8 C1.01 7.67 0.02 7.34 -1 7 C-1.33 7.99 -1.66 8.98 -2 10 C-2.66 10 -3.32 10 -4 10 C-4 10.99 -4 11.98 -4 13 C-4.66 13 -5.32 13 -6 13 C-4.31326082 8.50202887 -2.18326108 4.27113698 0 0 Z " fill="#DEF74A" transform="translate(50,98)"/>
<path d="M0 0 C-3.41211416 2.27474277 -5.6568529 2.56629644 -9.6875 3.125 C-10.86699219 3.29257812 -12.04648437 3.46015625 -13.26171875 3.6328125 C-14.16535156 3.75398438 -15.06898438 3.87515625 -16 4 C-16 3.34 -16 2.68 -16 2 C-10.60539047 -0.27141454 -5.73842251 -0.20413361 0 0 Z " fill="#DFF64C" transform="translate(387,427)"/>
<path d="M0 0 C1.32 0 2.64 0 4 0 C4.28875 0.7425 4.5775 1.485 4.875 2.25 C5.91204676 4.94322476 5.91204676 4.94322476 7.1875 7.125 C8 9 8 9 7 12 C6.16121545 10.71186658 5.32913217 9.41936744 4.5 8.125 C4.0359375 7.40570313 3.571875 6.68640625 3.09375 5.9453125 C2 4 2 4 2 2 C1.34 2 0.68 2 0 2 C0 1.34 0 0.68 0 0 Z " fill="#E1F659" transform="translate(368,287)"/>
<path d="M0 0 C1.29221628 4.20893303 0.48195994 6.85051218 -1 11 C-2.625 13.4375 -2.625 13.4375 -4 15 C-3.32584613 9.7415998 -1.75734451 4.97361654 0 0 Z " fill="#DEF650" transform="translate(43,112)"/>
<path d="M0 0 C-1.6210103 0.69685498 -3.24696066 1.38222861 -4.875 2.0625 C-5.77992188 2.44535156 -6.68484375 2.82820313 -7.6171875 3.22265625 C-10 4 -10 4 -12 3 C-10 0 -10 0 -7.125 -0.75 C-4.29385097 -0.97649192 -2.66341083 -0.76097452 0 0 Z " fill="#DCF548" transform="translate(406,421)"/>
<path d="M0 0 C2.51699845 2.51699845 3.10964078 4.57554146 4 8 C3.625 10.375 3.625 10.375 3 12 C0.01485372 7.89542386 -0.2954439 5.02254631 0 0 Z " fill="#DBF447" transform="translate(463,276)"/>
<path d="M0 0 C4.78006608 1.91202643 8.79772953 4.02766235 13 7 C12.01 7.495 12.01 7.495 11 8 C8.3984375 6.78515625 8.3984375 6.78515625 5.375 5.0625 C4.37210937 4.49660156 3.36921875 3.93070313 2.3359375 3.34765625 C1.56507813 2.90292969 0.79421875 2.45820313 0 2 C0 1.34 0 0.68 0 0 Z " fill="#DEF35E" transform="translate(411,218)"/>
<path d="M0 0 C0.598125 0.20625 1.19625 0.4125 1.8125 0.625 C1.1525 0.625 0.4925 0.625 -0.1875 0.625 C-0.8475 1.945 -1.5075 3.265 -2.1875 4.625 C-2.8475 4.625 -3.5075 4.625 -4.1875 4.625 C-4.5175 5.285 -4.8475 5.945 -5.1875 6.625 C-5.375 4.25 -5.375 4.25 -5.1875 1.625 C-2.1875 -0.375 -2.1875 -0.375 0 0 Z " fill="#DBF634" transform="translate(136.1875,133.375)"/>
<path d="M0 0 C0.66 0.33 1.32 0.66 2 1 C0.76055724 1.86941494 -0.49207059 2.72005457 -1.75 3.5625 C-2.44609375 4.03816406 -3.1421875 4.51382813 -3.859375 5.00390625 C-6 6 -6 6 -8.265625 5.65234375 C-8.83796875 5.43707031 -9.4103125 5.22179688 -10 5 C-8.38007835 4.13624104 -6.75388139 3.28424146 -5.125 2.4375 C-4.22007813 1.96183594 -3.31515625 1.48617187 -2.3828125 0.99609375 C-1.20332031 0.50302734 -1.20332031 0.50302734 0 0 Z " fill="#E3F471" transform="translate(101,54)"/>
<path d="M0 0 C0.33 1.32 0.66 2.64 1 4 C-1.375 5.5625 -1.375 5.5625 -4 7 C-4.66 6.67 -5.32 6.34 -6 6 C-4.02 4.02 -2.04 2.04 0 0 Z " fill="#DFF849" transform="translate(64,80)"/>
<path d="M0 0 C-1.44253657 3.36591866 -3.33264727 5.51047079 -6 8 C-5.6875 5.125 -5.6875 5.125 -5 2 C-2 0 -2 0 0 0 Z " fill="#E2F653" transform="translate(450,386)"/>
<path d="M0 0 C2.0625 0.4375 2.0625 0.4375 4 1 C4 1.99 4 2.98 4 4 C2.68 4.33 1.36 4.66 0 5 C-0.5625 3.0625 -0.5625 3.0625 -1 1 C-0.67 0.67 -0.34 0.34 0 0 Z " fill="#DCF935" transform="translate(440,241)"/>
<path d="M0 0 C-5.75 4 -5.75 4 -8 4 C-7.67 2.68 -7.34 1.36 -7 0 C-3.98968256 -0.93423645 -3.13349732 -1.04449911 0 0 Z " fill="#E2F75B" transform="translate(425,411)"/>
</svg>
